<svg width="19" height="19" viewBox="0 0 19 19" fill="none" xmlns="http://www.w3.org/2000/svg">
<path fill-rule="evenodd" clip-rule="evenodd" d="M8.5499 3.32508C7.16415 3.32508 5.83515 3.87556 4.85527 4.85544C3.87539 5.83532 3.3249 7.16432 3.3249 8.55008C3.3249 9.93583 3.87539 11.2648 4.85527 12.2447C5.83515 13.2246 7.16415 13.7751 8.5499 13.7751C9.93566 13.7751 11.2647 13.2246 12.2445 12.2447C13.2244 11.2648 13.7749 9.93583 13.7749 8.55008C13.7749 7.16432 13.2244 5.83532 12.2445 4.85544C11.2647 3.87556 9.93566 3.32508 8.5499 3.32508ZM1.8999 8.55008C1.89999 7.48671 2.15508 6.43887 2.64378 5.49446C3.13248 4.55004 3.84053 3.73659 4.70853 3.12234C5.57654 2.50809 6.5792 2.11095 7.63239 1.96424C8.68558 1.81752 9.75861 1.92551 10.7614 2.27915C11.7643 2.63278 12.6677 3.22175 13.3959 3.99664C14.1241 4.77154 14.6559 5.70977 14.9466 6.73262C15.2373 7.75548 15.2785 8.83313 15.0667 9.87519C14.8549 10.9172 14.3962 11.8933 13.7293 12.7215L16.8909 15.8841C16.9609 15.9493 17.0171 16.028 17.056 16.1154C17.0949 16.2028 17.1159 16.2971 17.1176 16.3928C17.1193 16.4884 17.1017 16.5835 17.0658 16.6722C17.03 16.7609 16.9766 16.8415 16.909 16.9092C16.8413 16.9768 16.7607 17.0302 16.672 17.066C16.5833 17.1018 16.4883 17.1194 16.3926 17.1177C16.2969 17.116 16.2026 17.0951 16.1152 17.0562C16.0278 17.0172 15.9491 16.9611 15.8839 16.8911L12.7214 13.7295C11.7443 14.5164 10.5646 15.011 9.31846 15.156C8.07231 15.301 6.81057 15.0905 5.67895 14.5489C4.54734 14.0073 3.59201 13.1566 2.92331 12.0951C2.25461 11.0336 1.89982 9.80463 1.8999 8.55008Z" fill="#FFF1F1"/>
</svg>
