<svg width="18" height="15" viewBox="0 0 18 15" fill="none" xmlns="http://www.w3.org/2000/svg">
<path d="M11.37 7.2375C11.37 8.475 10.17 9.475 8.685 9.475C7.2 9.475 6 8.475 6 7.2375C6 6 7.2 5 8.685 5C10.17 5 11.37 6 11.37 7.2375Z" stroke="black" stroke-opacity="0.3" stroke-width="1.5" stroke-linecap="round" stroke-linejoin="round"/>
<path d="M8.83875 12.2187C11.4862 12.2187 13.9537 10.9187 15.6712 8.66875C16.3462 7.7875 16.3462 6.30625 15.6712 5.425C13.9537 3.175 11.4862 1.875 8.83875 1.875C6.19125 1.875 3.72375 3.175 2.00625 5.425C1.33125 6.30625 1.33125 7.7875 2.00625 8.66875C3.72375 10.9187 6.19125 12.2187 8.83875 12.2187Z" stroke="black" stroke-opacity="0.3" stroke-width="1.5" stroke-linecap="round" stroke-linejoin="round"/>
</svg>
