<svg width="210" height="93" viewBox="0 0 210 93" fill="none" xmlns="http://www.w3.org/2000/svg">
<path d="M15.5911 87.6361C15.5973 90.3975 17.8408 92.6311 20.6022 92.6249L58.266 92.5408L98.9174 92.4501L112.102 92.4206L127.897 92.3854L159.894 92.3139L204.602 92.2141C207.363 92.2079 209.597 89.9644 209.591 87.2029L209.409 5.76288C209.403 3.00147 207.159 0.767894 204.398 0.774059L20.3981 1.18486C17.6367 1.19103 15.4031 3.4346 15.4093 6.19601L15.4579 28.0001C15.4611 29.3995 14.8776 30.7361 13.8493 31.6853L1.74171 42.8611C-0.659499 45.0776 -0.324032 48.9639 2.42147 50.7361L13.2453 57.7226C14.6686 58.6414 15.5299 60.2183 15.5337 61.9123L15.5911 87.6361Z" fill="#EFF4FF"/>
<path d="M16.0911 87.635C16.0966 90.1202 18.1158 92.1305 20.6011 92.1249L58.2649 92.0408L98.9163 91.9501L112.101 91.9206L127.895 91.8854L159.893 91.8139L204.601 91.7141C207.086 91.7086 209.096 89.6893 209.091 87.2041L208.909 5.764C208.903 3.27872 206.884 1.26851 204.399 1.27406L20.3992 1.68486C17.9139 1.69041 15.9037 3.70962 15.9093 6.1949L15.9579 27.9989C15.9614 29.5383 15.3196 31.0086 14.1884 32.0527L2.08084 43.2285C-0.080244 45.2233 0.221676 48.721 2.69263 50.316L13.5164 57.3025C15.0821 58.3131 16.0295 60.0478 16.0337 61.9112L16.0911 87.635Z" stroke="#1A1A21" stroke-opacity="0.1"/>
</svg>
