<svg width="20" height="23" viewBox="0 0 20 23" fill="none" xmlns="http://www.w3.org/2000/svg">
<path d="M10 1C9.53727 1 9.07749 1.16154 8.68139 1.45692L7.45533 2.34615L6.04269 2.53846H6.01974L5.99679 2.56231C5.53349 2.67101 5.10933 2.91391 4.77348 3.26286C4.43763 3.6118 4.20384 4.05249 4.09921 4.53385L4.077 4.55769V4.58154L3.89191 6.07231L3.03603 7.22615L3.01234 7.25V7.27385C2.49482 8.13308 2.47187 9.24231 3.03603 10.0623L3.91486 11.3362L4.14659 12.6592L1.76333 16.4323L1 17.6108H4.53973L5.39561 19.6777L5.92794 21L6.69126 19.7977L9.02789 16.1438C9.65573 16.4115 10.3643 16.4362 10.9721 16.1438L13.3087 19.7977L14.0721 21L14.6044 19.6777L15.4603 17.6108H19L18.2367 16.4323L15.923 12.7792L16.1081 11.3369L16.964 10.0631L16.9877 10.0392V10.0154C17.5052 9.15615 17.5281 8.07077 16.964 7.25077L16.1081 5.97615L15.8305 4.53385H15.8534C15.8504 4.51538 15.8334 4.50308 15.8305 4.48538C15.6972 3.47923 14.9309 2.66231 13.9566 2.53846H13.9329L12.5447 2.34615L11.3186 1.45692C10.9357 1.16548 10.4746 1.00571 10 1ZM10 2.56231C10.1703 2.56231 10.3384 2.61615 10.4627 2.70692L11.7813 3.69231L11.9435 3.81231L12.1286 3.83692L13.7485 4.07692H13.7707C14.1039 4.11538 14.3349 4.35615 14.3727 4.70231V4.75L14.674 6.45692L14.6962 6.62538L14.8124 6.76923L15.7609 8.13923C15.9378 8.39462 15.9608 8.82769 15.7379 9.19692L14.6969 10.7115L14.6732 10.9038L14.4423 12.5869V12.61C14.4299 12.7302 14.3903 12.8457 14.3268 12.9469L14.2801 12.9715V12.9946C14.1701 13.1319 14.0123 13.2185 13.8411 13.2354H13.7944L12.1056 13.5485L11.9205 13.5715L11.7813 13.6923L10.4627 14.6777C10.2169 14.8615 9.77715 14.8854 9.42177 14.6538L8.21866 13.6923L8.07947 13.5723L7.87142 13.5477L6.25148 13.3077H6.22927C6.12458 13.2981 6.02365 13.2625 5.935 13.2038C5.84634 13.1452 5.77257 13.0653 5.71989 12.9708C5.67069 12.8821 5.63922 12.7839 5.62734 12.6823V12.6346L5.32675 10.88L5.30306 10.6877L5.18756 10.5431L4.23914 9.17308C4.06219 8.91769 4.03924 8.46077 4.26209 8.09154L5.18756 6.84154L5.30306 6.69692L5.32601 6.48077L5.5348 4.87C5.53776 4.85846 5.55479 4.85846 5.55775 4.84615C5.60391 4.66098 5.6969 4.49201 5.82708 4.35675C5.95726 4.22149 6.1199 4.12488 6.29812 4.07692C6.30997 4.07385 6.30997 4.05615 6.32108 4.05308L7.87142 3.83615L8.05652 3.81308L8.21866 3.69231L9.53727 2.70692C9.66165 2.61692 9.82971 2.56231 10 2.56231ZM15.113 14.2692L16.2473 16.0723H14.4645L14.2794 16.5531L13.7707 17.7785L12.1974 15.2785L12.5439 15.0146L14.0025 14.75V14.7738C14.0195 14.7708 14.0306 14.7531 14.0484 14.75C14.438 14.6916 14.8062 14.5256 15.113 14.2692ZM4.88697 14.2931C5.20846 14.5967 5.61233 14.7899 6.04344 14.8462H6.06639L7.47828 15.0385L7.80183 15.3031L6.22853 17.7785L5.71989 16.5531L5.5348 16.0723H3.75346L4.88697 14.2931Z" fill="black" stroke="black"/>
</svg>
