<svg width="17" height="19" viewBox="0 0 17 19" fill="none" xmlns="http://www.w3.org/2000/svg">
<path fill-rule="evenodd" clip-rule="evenodd" d="M7.68769 1H9.31231C10.7262 1 11.8462 1 12.7223 1.12098C13.6238 1.24591 14.3538 1.50842 14.93 2.09986C15.5054 2.69209 15.7608 3.44247 15.8823 4.36916C16 5.27056 16 6.42102 16 7.87433V11.1257C16 12.579 16 13.7302 15.8823 14.6308C15.7608 15.5575 15.5054 16.3079 14.93 16.9001C14.3538 17.4916 13.6238 17.7541 12.7223 17.879C11.8454 18 10.7262 18 9.31231 18H7.68769C6.27385 18 5.15385 18 4.27769 17.879C3.37615 17.7541 2.64615 17.4916 2.07 16.9001C1.49462 16.3079 1.23923 15.5575 1.11769 14.6308C1 13.7294 1 12.579 1 11.1257V7.87433C1 6.42102 1 5.26977 1.11769 4.36916C1.23923 3.44247 1.49462 2.69209 2.07 2.09986C2.64615 1.50842 3.37615 1.24591 4.27769 1.12098C5.15462 1 6.27385 1 7.68769 1ZM4.43077 2.29674C3.65692 2.40349 3.21077 2.60433 2.88462 2.93879C2.56 3.27326 2.36462 3.73186 2.26077 4.5273C2.15462 5.34014 2.15308 6.41074 2.15308 7.9186V11.0814C2.15308 12.5893 2.15462 13.6607 2.26077 14.4735C2.36462 15.2681 2.56 15.7267 2.88538 16.0612C3.21077 16.3957 3.65692 16.5965 4.43077 16.7033C5.22154 16.8124 6.26308 16.814 7.73 16.814H9.26846C10.7354 16.814 11.7777 16.8124 12.5685 16.7033C13.3415 16.5965 13.7877 16.3957 14.1131 16.0612C14.4385 15.7267 14.6338 15.2681 14.7377 14.4727C14.8438 13.6607 14.8454 12.5893 14.8454 11.0814V7.9186C14.8454 6.41074 14.8438 5.34014 14.7377 4.52651C14.6338 3.73186 14.4385 3.27326 14.1131 2.93879C13.7877 2.60433 13.3415 2.40349 12.5677 2.29674C11.7777 2.18763 10.7354 2.18605 9.26846 2.18605H7.73C6.26308 2.18605 5.22231 2.18763 4.43077 2.29674ZM4.84615 6.33721C4.84615 6.17993 4.90694 6.02909 5.01513 5.91788C5.12332 5.80666 5.27007 5.74419 5.42308 5.74419H11.5769C11.7299 5.74419 11.8767 5.80666 11.9849 5.91788C12.0931 6.02909 12.1538 6.17993 12.1538 6.33721C12.1538 6.49449 12.0931 6.64533 11.9849 6.75654C11.8767 6.86775 11.7299 6.93023 11.5769 6.93023H5.42308C5.27007 6.93023 5.12332 6.86775 5.01513 6.75654C4.90694 6.64533 4.84615 6.49449 4.84615 6.33721ZM4.84615 9.5C4.84615 9.34272 4.90694 9.19188 5.01513 9.08067C5.12332 8.96946 5.27007 8.90698 5.42308 8.90698H11.5769C11.7299 8.90698 11.8767 8.96946 11.9849 9.08067C12.0931 9.19188 12.1538 9.34272 12.1538 9.5C12.1538 9.65728 12.0931 9.80812 11.9849 9.91933C11.8767 10.0305 11.7299 10.093 11.5769 10.093H5.42308C5.27007 10.093 5.12332 10.0305 5.01513 9.91933C4.90694 9.80812 4.84615 9.65728 4.84615 9.5ZM4.84615 12.6628C4.84615 12.5055 4.90694 12.3547 5.01513 12.2435C5.12332 12.1322 5.27007 12.0698 5.42308 12.0698H9.26923C9.42224 12.0698 9.56898 12.1322 9.67718 12.2435C9.78537 12.3547 9.84615 12.5055 9.84615 12.6628C9.84615 12.8201 9.78537 12.9709 9.67718 13.0821C9.56898 13.1933 9.42224 13.2558 9.26923 13.2558H5.42308C5.27007 13.2558 5.12332 13.1933 5.01513 13.0821C4.90694 12.9709 4.84615 12.8201 4.84615 12.6628Z" fill="black" stroke="black"/>
</svg>
