<svg width="17" height="18" viewBox="0 0 17 18" fill="none" xmlns="http://www.w3.org/2000/svg">
<path d="M1 2C1 1.73478 1.09877 1.48043 1.27459 1.29289C1.4504 1.10536 1.68886 1 1.9375 1H5.6875C5.93614 1 6.1746 1.10536 6.35041 1.29289C6.52623 1.48043 6.625 1.73478 6.625 2V7C6.625 7.26522 6.52623 7.51957 6.35041 7.70711C6.1746 7.89464 5.93614 8 5.6875 8H1.9375C1.68886 8 1.4504 7.89464 1.27459 7.70711C1.09877 7.51957 1 7.26522 1 7V2ZM10.375 2C10.375 1.73478 10.4738 1.48043 10.6496 1.29289C10.8254 1.10536 11.0639 1 11.3125 1H15.0625C15.3111 1 15.5496 1.10536 15.7254 1.29289C15.9012 1.48043 16 1.73478 16 2V4C16 4.26522 15.9012 4.51957 15.7254 4.70711C15.5496 4.89464 15.3111 5 15.0625 5H11.3125C11.0639 5 10.8254 4.89464 10.6496 4.70711C10.4738 4.51957 10.375 4.26522 10.375 4V2ZM1 13C1 12.7348 1.09877 12.4804 1.27459 12.2929C1.4504 12.1054 1.68886 12 1.9375 12H5.6875C5.93614 12 6.1746 12.1054 6.35041 12.2929C6.52623 12.4804 6.625 12.7348 6.625 13V16C6.625 16.2652 6.52623 16.5196 6.35041 16.7071C6.1746 16.8946 5.93614 17 5.6875 17H1.9375C1.68886 17 1.4504 16.8946 1.27459 16.7071C1.09877 16.5196 1 16.2652 1 16V13ZM10.375 10C10.375 9.73478 10.4738 9.48043 10.6496 9.29289C10.8254 9.10536 11.0639 9 11.3125 9H15.0625C15.3111 9 15.5496 9.10536 15.7254 9.29289C15.9012 9.48043 16 9.73478 16 10V16C16 16.2652 15.9012 16.5196 15.7254 16.7071C15.5496 16.8946 15.3111 17 15.0625 17H11.3125C11.0639 17 10.8254 16.8946 10.6496 16.7071C10.4738 16.5196 10.375 16.2652 10.375 16V10Z" stroke="black" stroke-width="2"/>
</svg>
