<svg width="80" height="80" viewBox="0 0 80 80" fill="none" xmlns="http://www.w3.org/2000/svg">
<path d="M36.0938 0C26.2695 0 21.7323 1.86687 19.6448 4.21547C17.8273 6.26016 17.563 9.03547 17.5214 12.1875H22.2772C22.5325 10.0058 23.4192 8.05625 25.3144 6.79406C27.6098 5.26563 30.977 4.6875 36.0938 4.6875C41.2114 4.6875 44.5798 5.27172 46.8744 6.80313C48.7673 8.06625 49.6537 10.0134 49.9097 12.1875H54.6661C54.6245 9.03547 54.3602 6.26016 52.5427 4.21547C50.4552 1.86687 45.918 0 36.0938 0ZM15 14.6875V17.1875H24.6875V14.6875H15ZM47.5 14.6875V17.1875H57.1875V14.6875H47.5ZM8.82344 20C6.65688 20 4.41219 21.0683 2.73438 22.7206C1.05656 24.3731 0 26.5625 0 28.5938V58.5938C0 60.8594 0.544531 62.3053 1.46406 63.2239C2.38328 64.1422 3.83281 64.6875 6.10359 64.6875H66.1641C68.3911 64.6875 69.8175 64.1464 70.7295 63.2278C71.6417 62.3094 72.1875 60.8594 72.1875 58.5938V28.5938C72.1875 26.5625 71.1286 24.3672 69.4745 22.713C67.8203 21.0589 65.625 20 63.5938 20H8.82344ZM31.0938 28.5938H41.0938V38.5938H51.0938V48.5938H41.0938V58.5938H31.0938V48.5938H21.0938V38.5938H31.0938V28.5938Z" fill="#FBFBFB"/>
</svg>
