<svg width="22" height="19" viewBox="0 0 22 19" fill="none" xmlns="http://www.w3.org/2000/svg">
<path d="M15.669 12.2356C16.1008 11.9579 16.6073 11.8009 17.1299 11.783C17.6524 11.765 18.1697 11.8868 18.6218 12.1343C19.074 12.3817 19.4425 12.7447 19.6848 13.1812C19.9271 13.6177 20.0332 14.1099 19.9909 14.6009C18.8834 14.9655 17.707 15.1074 16.5376 15.0174C16.534 14.0318 16.2328 13.0667 15.669 12.2365C15.1686 11.4972 14.4783 10.8887 13.662 10.4674C12.8457 10.0461 11.9298 9.82548 10.9991 9.82608C10.0684 9.82563 9.1527 10.0463 8.33659 10.4676C7.52048 10.8889 6.83035 11.4973 6.33003 12.2365M16.5367 15.0165L16.5376 15.0435C16.5376 15.2391 16.5266 15.4322 16.5035 15.6226C14.8284 16.5279 12.9303 17.0029 10.9991 17C8.99593 17 7.11558 16.4991 5.49463 15.6226C5.47089 15.4214 5.45949 15.219 5.46047 15.0165M5.46047 15.0165C4.29149 15.1098 3.11572 14.9684 2.00901 14.6017C1.96687 14.1109 2.07307 13.6189 2.31532 13.1825C2.55758 12.7461 2.92599 12.3833 3.37797 12.1359C3.82995 11.8885 4.34703 11.7666 4.86943 11.7845C5.39183 11.8023 5.89821 11.959 6.33003 12.2365M5.46047 15.0165C5.46379 14.0311 5.76659 13.0668 6.33003 12.2365M13.7683 4.60869C13.7683 5.30056 13.4766 5.96409 12.9572 6.45332C12.4379 6.94254 11.7335 7.21739 10.9991 7.21739C10.2646 7.21739 9.56021 6.94254 9.04087 6.45332C8.52152 5.96409 8.22976 5.30056 8.22976 4.60869C8.22976 3.91682 8.52152 3.25329 9.04087 2.76407C9.56021 2.27484 10.2646 2 10.9991 2C11.7335 2 12.4379 2.27484 12.9572 2.76407C13.4766 3.25329 13.7683 3.91682 13.7683 4.60869ZM19.3069 7.21739C19.3069 7.47432 19.2532 7.72874 19.1488 7.96612C19.0444 8.20349 18.8915 8.41918 18.6986 8.60086C18.5057 8.78253 18.2768 8.92665 18.0248 9.02498C17.7728 9.1233 17.5027 9.17391 17.23 9.17391C16.9572 9.17391 16.6871 9.1233 16.4351 9.02498C16.1831 8.92665 15.9542 8.78253 15.7613 8.60086C15.5685 8.41918 15.4155 8.20349 15.3111 7.96612C15.2067 7.72874 15.153 7.47432 15.153 7.21739C15.153 6.69849 15.3718 6.20084 15.7613 5.83392C16.1508 5.467 16.6791 5.26087 17.23 5.26087C17.7808 5.26087 18.3091 5.467 18.6986 5.83392C19.0881 6.20084 19.3069 6.69849 19.3069 7.21739ZM6.84512 7.21739C6.84512 7.47432 6.79139 7.72874 6.68702 7.96612C6.58264 8.20349 6.42965 8.41918 6.23679 8.60086C6.04392 8.78253 5.81496 8.92665 5.56297 9.02498C5.31098 9.1233 5.0409 9.17391 4.76815 9.17391C4.4954 9.17391 4.22532 9.1233 3.97333 9.02498C3.72134 8.92665 3.49238 8.78253 3.29951 8.60086C3.10665 8.41918 2.95366 8.20349 2.84928 7.96612C2.7449 7.72874 2.69118 7.47432 2.69118 7.21739C2.69118 6.69849 2.91 6.20084 3.29951 5.83392C3.68902 5.467 4.2173 5.26087 4.76815 5.26087C5.319 5.26087 5.84728 5.467 6.23679 5.83392C6.62629 6.20084 6.84512 6.69849 6.84512 7.21739Z" stroke="black" stroke-width="3.125" stroke-linecap="round" stroke-linejoin="round"/>
</svg>
